<mxfile host="app.diagrams.net" agent="Mozilla/5.0 (Windows NT 10.0; Win64; x64) AppleWebKit/537.36 (KHTML, like Gecko) Chrome/131.0.0.0 Safari/537.36" version="25.0.3">
  <diagram name="Seite-1" id="lOsSiM6dmzvXTQfgRil-">
    <mxGraphModel dx="1816" dy="694" grid="1" gridSize="10" guides="1" tooltips="1" connect="1" arrows="1" fold="1" page="1" pageScale="1" pageWidth="1654" pageHeight="1169" math="0" shadow="0">
      <root>
        <mxCell id="0" />
        <mxCell id="1" parent="0" />
        <mxCell id="3YPTd3bTXxpIlsSQVBUS-1" value="INT" style="rounded=0;whiteSpace=wrap;html=1;fillColor=#d5e8d4;strokeColor=#82b366;" vertex="1" parent="1">
          <mxGeometry x="240" y="420" width="80" height="20" as="geometry" />
        </mxCell>
        <mxCell id="3YPTd3bTXxpIlsSQVBUS-15" style="rounded=0;orthogonalLoop=1;jettySize=auto;html=1;entryX=0;entryY=0.5;entryDx=0;entryDy=0;exitX=1;exitY=0.5;exitDx=0;exitDy=0;endArrow=none;endFill=0;strokeWidth=2;" edge="1" parent="1" source="3YPTd3bTXxpIlsSQVBUS-4" target="3YPTd3bTXxpIlsSQVBUS-8">
          <mxGeometry relative="1" as="geometry" />
        </mxCell>
        <mxCell id="3YPTd3bTXxpIlsSQVBUS-4" value="A" style="rounded=0;whiteSpace=wrap;html=1;fillColor=#f8cecc;strokeColor=#b85450;" vertex="1" parent="1">
          <mxGeometry x="400" y="400" width="80" height="20" as="geometry" />
        </mxCell>
        <mxCell id="3YPTd3bTXxpIlsSQVBUS-14" style="rounded=0;orthogonalLoop=1;jettySize=auto;html=1;entryX=0;entryY=0.5;entryDx=0;entryDy=0;exitX=1;exitY=0.5;exitDx=0;exitDy=0;endArrow=none;endFill=0;strokeWidth=2;" edge="1" parent="1" source="3YPTd3bTXxpIlsSQVBUS-5" target="3YPTd3bTXxpIlsSQVBUS-7">
          <mxGeometry relative="1" as="geometry" />
        </mxCell>
        <mxCell id="3YPTd3bTXxpIlsSQVBUS-5" value="B" style="rounded=0;whiteSpace=wrap;html=1;fillColor=#dae8fc;strokeColor=#6c8ebf;" vertex="1" parent="1">
          <mxGeometry x="400" y="420" width="80" height="20" as="geometry" />
        </mxCell>
        <mxCell id="3YPTd3bTXxpIlsSQVBUS-6" value="Byte-Array" style="text;html=1;align=center;verticalAlign=middle;whiteSpace=wrap;rounded=0;" vertex="1" parent="1">
          <mxGeometry x="410" y="370" width="60" height="30" as="geometry" />
        </mxCell>
        <mxCell id="3YPTd3bTXxpIlsSQVBUS-7" value="B" style="rounded=0;whiteSpace=wrap;html=1;fillColor=#dae8fc;strokeColor=#6c8ebf;" vertex="1" parent="1">
          <mxGeometry x="520" y="400" width="80" height="20" as="geometry" />
        </mxCell>
        <mxCell id="3YPTd3bTXxpIlsSQVBUS-8" value="A" style="rounded=0;whiteSpace=wrap;html=1;fillColor=#f8cecc;strokeColor=#b85450;" vertex="1" parent="1">
          <mxGeometry x="520" y="420" width="80" height="20" as="geometry" />
        </mxCell>
        <mxCell id="3YPTd3bTXxpIlsSQVBUS-9" value="INT" style="rounded=0;whiteSpace=wrap;html=1;fillColor=#d5e8d4;strokeColor=#82b366;" vertex="1" parent="1">
          <mxGeometry x="680" y="420" width="80" height="20" as="geometry" />
        </mxCell>
        <mxCell id="3YPTd3bTXxpIlsSQVBUS-11" value="" style="endArrow=classic;html=1;rounded=0;strokeWidth=2;endFill=1;" edge="1" parent="1">
          <mxGeometry width="50" height="50" relative="1" as="geometry">
            <mxPoint x="330" y="430" as="sourcePoint" />
            <mxPoint x="390" y="430" as="targetPoint" />
          </mxGeometry>
        </mxCell>
        <mxCell id="3YPTd3bTXxpIlsSQVBUS-16" value="Byte-Array" style="text;html=1;align=center;verticalAlign=middle;whiteSpace=wrap;rounded=0;" vertex="1" parent="1">
          <mxGeometry x="530" y="370" width="60" height="30" as="geometry" />
        </mxCell>
        <mxCell id="3YPTd3bTXxpIlsSQVBUS-17" value="UNION" style="text;html=1;align=center;verticalAlign=middle;whiteSpace=wrap;rounded=0;" vertex="1" parent="1">
          <mxGeometry x="324" y="405" width="60" height="30" as="geometry" />
        </mxCell>
        <mxCell id="3YPTd3bTXxpIlsSQVBUS-19" value="" style="endArrow=classic;html=1;rounded=0;strokeWidth=2;endFill=1;" edge="1" parent="1">
          <mxGeometry width="50" height="50" relative="1" as="geometry">
            <mxPoint x="610" y="430" as="sourcePoint" />
            <mxPoint x="670" y="430" as="targetPoint" />
          </mxGeometry>
        </mxCell>
        <mxCell id="3YPTd3bTXxpIlsSQVBUS-20" value="UNION" style="text;html=1;align=center;verticalAlign=middle;whiteSpace=wrap;rounded=0;" vertex="1" parent="1">
          <mxGeometry x="604" y="405" width="60" height="30" as="geometry" />
        </mxCell>
      </root>
    </mxGraphModel>
  </diagram>
</mxfile>
